<?xml version="1.0" encoding="UTF-8" standalone="no"?>
<!-- Created with Inkscape (http://www.inkscape.org/) -->
<svg xmlns:dc="http://purl.org/dc/elements/1.1/" xmlns:cc="http://creativecommons.org/ns#" xmlns:rdf="http://www.w3.org/1999/02/22-rdf-syntax-ns#" xmlns:svg="http://www.w3.org/2000/svg" xmlns="http://www.w3.org/2000/svg" xmlns:sodipodi="http://sodipodi.sourceforge.net/DTD/sodipodi-0.dtd" xmlns:inkscape="http://www.inkscape.org/namespaces/inkscape" width="751.27405mm" height="751.26276mm" viewBox="0 0 2661.9947 2661.9546" id="svg2" inkscape:version="0.91 r13725" sodipodi:docname="GeminiDrawing7.svg">
  <defs>
    <linearGradient x1="0" y1="0" x2="1" y2="0" gradientUnits="userSpaceOnUse" gradientTransform="matrix(-142.79733,-148.89941,-148.89941,142.79733,218.66016,258.73047)" spreadMethod="pad" id="linearGradient176">
      <stop style="stop-opacity:1;stop-color:#8fa9c5" offset="0" id="stop178"/>
      <stop style="stop-opacity:1;stop-color:#8fa9c5" offset="0.039326" id="stop180"/>
      <stop style="stop-opacity:1;stop-color:#195f94" offset="0.3237703" id="stop182"/>
      <stop style="stop-opacity:1;stop-color:#195f94" offset="0.348315" id="stop184"/>
      <stop style="stop-opacity:1;stop-color:#195f94" offset="0.37631051" id="stop186"/>
      <stop style="stop-opacity:1;stop-color:#426aa4" offset="0.58427" id="stop188"/>
      <stop style="stop-opacity:1;stop-color:#426aa4" offset="0.60693301" id="stop190"/>
      <stop style="stop-opacity:1;stop-color:#6b89b3" offset="0.775281" id="stop192"/>
      <stop style="stop-opacity:1;stop-color:#2e4978" offset="0.95629068" id="stop194"/>
      <stop style="stop-opacity:1;stop-color:#2e4978" offset="0.97191" id="stop196"/>
      <stop style="stop-opacity:1;stop-color:#2e4978" offset="0.97524281" id="stop198"/>
      <stop style="stop-opacity:1;stop-color:#2e4978" offset="1" id="stop200"/>
    </linearGradient>
    <linearGradient x1="0" y1="0" x2="1" y2="0" gradientUnits="userSpaceOnUse" gradientTransform="matrix(132.67432,0,0,-132.67432,89.881836,193.62207)" spreadMethod="pad" id="linearGradient216">
      <stop style="stop-opacity:1;stop-color:#2e4978" offset="0" id="stop218"/>
      <stop style="stop-opacity:1;stop-color:#2e4978" offset="0.02809" id="stop220"/>
      <stop style="stop-opacity:1;stop-color:#2e4978" offset="0.04370932" id="stop222"/>
      <stop style="stop-opacity:1;stop-color:#6b89b3" offset="0.224719" id="stop224"/>
      <stop style="stop-opacity:1;stop-color:#426aa4" offset="0.39306699" id="stop226"/>
      <stop style="stop-opacity:1;stop-color:#426aa4" offset="0.41573" id="stop228"/>
      <stop style="stop-opacity:1;stop-color:#195f94" offset="0.62368949" id="stop230"/>
      <stop style="stop-opacity:1;stop-color:#195f94" offset="0.651685" id="stop232"/>
      <stop style="stop-opacity:1;stop-color:#195f94" offset="0.6762297" id="stop234"/>
      <stop style="stop-opacity:1;stop-color:#8fa9c5" offset="0.960674" id="stop236"/>
      <stop style="stop-opacity:1;stop-color:#8fa9c5" offset="1" id="stop238"/>
    </linearGradient>
  </defs>
  <metadata id="metadata7"/>
  <g inkscape:label="Layer 1" inkscape:groupmode="layer" id="layer1" transform="translate(2590.9973,1310.0436)">
    <g transform="matrix(1.25,0,0,-1.25,1267.0559,-3446.5037)" id="g5751">
      <g transform="matrix(16.051221,0,0,16.051221,-4529.1584,-5881.8274)" id="g164">
        <g id="g166">
          <g id="g172">
            <g id="g174">
              <path inkscape:connector-curvature="0" id="path202" style="fill:url(#linearGradient176);stroke:none" d="m 110.833,258.088 c -10.522,0 -19.077,-8.99 -19.077,-20.038 l 0,0 0,-88.856 c 0,-11.047 8.555,-20.036 19.077,-20.036 l 0,0 90.777,0 c 10.519,0 19.074,8.989 19.074,20.036 l 0,0 0,88.856 c 0,11.048 -8.555,20.038 -19.074,20.038 l 0,0 -90.777,0 z"/>
            </g>
          </g>
        </g>
      </g>
      <g transform="matrix(16.051221,0,0,16.051221,-4529.1584,-5881.8274)" id="g204">
        <g id="g206">
          <g id="g212">
            <g id="g214">
              <path inkscape:connector-curvature="0" id="path240" style="fill:url(#linearGradient216);stroke:none" d="m 110.831,259.959 c -11.57,0 -20.949,-9.81 -20.949,-21.909 l 0,0 0,-88.853 c 0,-12.1 9.379,-21.911 20.949,-21.911 l 0,0 90.779,0 c 11.568,0 20.947,9.811 20.947,21.911 l 0,0 0,88.853 c 0,12.099 -9.379,21.909 -20.947,21.909 l 0,0 -90.779,0 z m -17.204,-110.762 0,88.853 c 0,10.015 7.718,18.165 17.204,18.165 l 0,0 90.779,0 c 9.483,0 17.201,-8.15 17.201,-18.165 l 0,0 0,-88.853 c 0,-10.02 -7.718,-18.168 -17.201,-18.168 l 0,0 -90.779,0 c -9.486,0 -17.204,8.148 -17.204,18.168"/>
            </g>
          </g>
        </g>
      </g>
      <path style="fill:#ffff85;fill-opacity:1" id="path4-0" d="m -2324.6291,-2057.3893 c -33.2859,-2.0637 -65.7129,-15.202 -90.5292,-37.5765 -28.014,-22.6503 -43.2885,-56.1612 -65.1726,-84.0016 -36.3406,-55.2823 -99.8068,-85.7276 -134.7783,-142.0929 -18.2368,-31.8146 -32.1419,-67.3998 -28.8317,-104.8643 -1.1137,-9.0417 -1.4192,-18.1745 0.011,-27.2162 -2.6768,-42.7158 9.4201,-87.4864 -6.8244,-128.4041 -1.1443,-2.3907 -2.2585,-4.8006 -3.2597,-7.273 l 0,-2.6882 c 1.512,-4.7099 6.2117,-6.4161 10.9318,-5.4148 11.4528,2.9219 12.9856,16.511 15.0903,26.1657 5.4761,46.0158 0.8173,92.8793 -1.839,138.8746 l -0.031,0.9099 c 3.157,28.0652 7.6111,56.3244 15.7129,83.419 12.025,20.0961 27.4624,37.7502 43.0632,55.098 56.4674,54.1789 109.6135,112.0259 155.0776,175.8493 37.6484,55.7319 136.6273,70.0352 175.8286,9.0418 -23.294,-6.3037 -50.8471,-7.7752 -68.011,-26.9927 -21.0668,-34.1849 -29.424,-74.5097 -50.6746,-108.6844 -5.8848,-10.0532 -12.6074,-19.6262 -18.1346,-29.8837 -9.9816,-14.7222 -21.6902,-28.2392 -31.6413,-42.9307 -6.3751,-4.8427 -11.3819,-11.0851 -16.4392,-17.215 -2.503,-2.2783 -4.9953,-4.5873 -7.2634,-7.1006 -8.0609,-6.2219 -15.8968,-12.7296 -23.6819,-19.2887 -2.0127,-1.4917 -5.681,-2.0849 -5.916,-4.9966 13.629,-11.1872 28.7707,-21.3432 45.9653,-25.9918 46.2303,-15.0389 107.4779,-14.7222 141.0601,25.6438 2.2272,2.2783 4.3015,4.7111 5.9464,7.439 6.3138,2.6767 11.903,12.412 5.4052,17.5918 -15.233,3.443 -42.3285,0.2762 -46.3948,20.2497 -0.02,0.4189 -0.07,1.2573 -0.091,1.6761 0.7969,10.9319 2.0232,23.0281 10.6461,30.8847 3.4328,1.134 7.0287,1.6452 10.6046,2.1662 8.4696,-3.586 19.1156,-9.5733 27.4524,-2.6771 14.1603,13.3634 8.3464,38.4555 26.8794,48.6313 14.4259,7.1516 2.973,24.8165 4.8529,37.0561 -7.3969,23.9172 17.8171,41.765 13.6998,65.7026 -1.7675,47.3849 -52.4516,75.8998 -95.2798,78.8933 l -13.4348,0 z m -67.0133,-56.6114 c -1.0296,-0.073 -2.5382,-1.2585 -2.9405,-2.6148 -36.0954,-52.3195 -72.6304,-104.9346 -117.1035,-150.5009 -18.5739,-16.5816 -34.0827,-36.9022 -50.6235,-55.66 -22.8751,-24.5607 -27.2364,-59.145 -35.5221,-90.2241 -4.0662,-19.9429 -1.3086,-43.3796 -1.799,-64.5485 -2.7279,-36.1363 3.965,-74.1326 -9.235,-108.7977 6.743,-5.6192 18.2359,-7.7544 21.7504,2.6052 0.756,28.7599 2.0538,58.1442 -2.8399,86.7202 0.082,19.146 1.4105,38.3121 0.9609,57.4479 l 0,1.8183 c 3.2081,16.4181 4.8632,33.6434 7.5093,50.317 8.0813,27.8608 23.8552,52.5439 40.774,75.7357 54.6591,61.0853 111.5757,122.0995 149.8575,195.4141 0.5229,1.7298 0.012,2.3448 -0.7886,2.2876 z m 34.2593,-8.0392 c -13.0569,-14.9572 -26.5639,-29.7416 -37.2812,-46.548 -53.9643,-68.1144 -110.2686,-134.6236 -159.6048,-206.2423 -2.9117,-2.4213 -1.5226,-10.1457 2.6356,-7.755 64.324,85.7789 136.1985,166.1738 194.2903,256.54 0.1635,1.1239 1.605,3.7601 -0.04,4.0053 z m 617.9524,-10.7243 c -30.5761,-0.024 -61.0284,-12.2811 -87.0042,-27.8436 -27.9937,-16.2547 -37.0255,-49.49 -40.0701,-79.4759 1.2056,-9.6445 6.5498,-18.0123 11.3517,-26.2265 3.208,-12.1578 0.317,-24.9484 -5.956,-35.6146 -6.6204,-18.9825 26.379,-12.046 28.3304,-28.9546 -7.9383,-6.0686 -14.1506,-16.519 -24.919,-17.1831 -23.1101,-2.8913 -46.3328,-4.7303 -69.5961,-5.8235 -12.403,0.5108 -24.9079,-1.2068 -37.1679,1.3984 -4.9142,1.2975 -9.8897,2.4529 -14.9674,2.7186 -49.0399,12.4234 -99.2854,18.9203 -149.5717,23.6914 -35.932,2.2681 -72.0581,0.4802 -108.0411,0.9706 3.9845,-22.6605 37.4443,-14.18 45.0762,-33.6734 1.982,-20.5559 -8.5409,-39.6512 -16.7857,-57.7448 -7.5807,-16.7043 -18.0838,-31.7639 -27.4014,-47.4771 -4.6179,-4.6486 -8.725,-9.7467 -12.4643,-15.1207 -11.5754,-11.8002 -23.2636,-23.6004 -36.9028,-33.0508 -48.3043,-33.3676 -110.8101,-32.0797 -165.2751,-16.4073 -9.1745,4.1581 -3.8916,-8.1842 -2.1343,-12.1993 8.3265,-21.833 24.9286,-39.7623 43.2164,-53.8817 0.2656,-0.2452 0.8071,-0.7359 1.0728,-0.9914 11.1667,-12.6277 23.3239,-24.3673 35.5635,-35.953 8.9089,-12.7912 21.5683,-23.4667 27.0342,-38.4034 -12.7606,-51.543 -33.6958,-103.4541 -34.0533,-157.6126 -0.2452,-4.056 -1.0013,-8.0309 -1.3282,-12.0971 4.9653,2.1863 8.1733,7.6015 11.6981,11.7699 6.0176,6.2321 12.6488,11.8925 18.0738,18.6661 8.0303,7.9383 17.3581,14.885 23.6005,24.4274 36.596,35.0635 72.5171,71.7416 100.1328,114.4472 10.472,14.4157 21.7719,31.4363 18.615,50.143 -17.8281,19.8918 -8.5201,47.8449 -10.1241,72.0992 0.9297,19.2482 -0.7362,40.7137 13.2402,56.1613 12.9343,20.3311 11.1767,46.6089 7.2331,69.2592 7.7442,8.4594 21.4664,3.2588 31.6013,4.7811 17.9404,-2.2783 36.0035,-3.3826 53.995,-5.1705 23.1203,-2.9731 50.2758,-9.5616 66.9494,11.4745 29.8735,-3.3204 59.2863,-10.8092 89.4356,-11.3916 17.8485,-0.3984 35.7283,-0.2049 53.5257,1.1846 24.9081,-5.7009 56.8048,10.7578 77.3607,-8.8071 2.1864,-8.5411 -1.5935,-20.5968 -11.8816,-21.0463 -22.0476,-3.7189 -48.4585,-9.5108 -59.421,-31.4051 -6.2424,-16.5203 -4.6383,-43.2368 15.325,-48.9888 5.5272,-3.8108 13.9262,3.943 17.6349,-2.9021 -2.4929,-26.8392 -9.5526,-54.1182 -24.7754,-76.7175 -4.8223,-7.9894 -14.1204,-13.6278 -15.4383,-23.4664 -6.7736,-48.5597 7.5702,-101.7182 43.8087,-135.9644 9.5423,-7.8668 21.3119,-15.8863 34.3789,-13.0869 5.5477,2.1863 12.6697,13.1392 18.1969,5.2009 2.973,-15.2331 0.8278,-32.2348 10.3906,-45.5982 17.1844,-24.4075 42.2146,-42.2969 61.3095,-65.3865 14.6711,-18.7578 28.9128,-37.9537 39.8753,-59.1736 0.8378,-3.6167 2.217,-7.0907 4.291,-10.1863 0.9297,-4.5873 1.7266,-9.2981 2.9628,-13.8547 2.3907,-30.2311 6.2941,-61.2179 -0.4182,-91.1629 -12.5052,-45.7297 -37.5363,-87.0456 -65.6628,-124.7246 0.4802,-14.0785 16.9699,-2.8095 20.0247,4.904 5.3842,-4.434 9.5423,-10.5844 16.2445,-13.2305 4.3625,13.1488 9.7466,26.2363 20.4843,35.5539 13.956,7.6114 29.8013,2.9421 43.839,-2.013 3.1978,-1.8492 6.4875,-3.6157 9.7569,-5.4037 7.0801,-5.047 18.0835,-10.2986 16.9086,-20.8627 0.2657,-4.2092 -4.5458,-7.8881 -8.3872,-5.6303 -12.8424,6.9065 -28.4231,15.3154 -43.0839,9.5941 -18.8702,-7.969 -15.5897,-34.4094 -16.0801,-50.8582 1.0523,-14.5689 1.7661,-31.7227 13.4029,-42.1947 5.3842,-7.7545 11.6061,-14.9064 18.3389,-21.5268 7.3866,-10.1758 16.0306,-19.3293 24.3061,-28.7695 2.2579,-2.8198 4.7405,-5.4873 7.4071,-7.9801 5.7622,-8.0405 11.872,-15.9984 19.3813,-22.5166 4.3216,-6.4059 9.4299,-12.3021 15.376,-17.298 4.526,-6.2526 9.3275,-12.412 15.2532,-17.4386 6.2321,-8.6127 13.1073,-16.7872 20.4429,-24.5008 5.9154,-8.2959 11.7095,-16.7345 18.4218,-24.4481 1.3384,-2.6257 3.0536,-5.0464 5.0765,-7.2124 4.7711,-12.3519 4.2501,-26.7471 12.1067,-37.8526 2.0638,-4.0663 6.4987,-5.7728 10.5854,-7.0703 l 2.7074,0 c 19.0745,12.0046 42.6025,-2.2371 61.6974,9.0625 6.7123,7.1108 -2.7483,15.5693 -9.6036,17.4083 -15.7235,5.4046 -26.5931,18.0744 -37.6373,29.7623 -4.0458,7.1516 -8.1432,14.2309 -12.4036,21.2395 -3.0139,7.7136 -5.6083,15.6528 -10.0219,22.6921 -0.8786,3.2795 -2.1557,6.4259 -3.8823,9.3275 -2.3294,6.2526 -4.9139,12.3919 -8.408,18.0723 -4.0663,11.5448 -8.204,23.2441 -14.2523,33.9001 -24.2543,60.1556 -50.1643,121.4441 -91.7359,171.8632 -14.3135,19.2789 -31.2524,37.2094 -45.6987,55.8037 19.2073,40.1514 18.5435,87.0969 7.3256,129.5471 -10.2575,34.4608 -30.5481,64.4463 -49.5204,94.5344 -6.5182,17.5522 1.5734,36.7805 -3.3715,54.7516 -3.0752,18.5943 -8.1739,37.801 -19.351,53.2894 -0.8888,3.1774 -2.5848,6.0901 -5.2104,8.1334 -13.2,16.7962 -16.8365,40.253 -3.8409,58.2445 27.728,35.3598 63.4553,63.2216 92.5932,97.3758 2.8504,6.2118 13.0464,9.6851 15.6618,1.665 3.3613,-52.6872 -1.9916,-105.9166 2.6467,-158.5528 13.1387,-56.4674 31.0782,-111.8714 51.5319,-166.1116 7.1312,-21.1791 20.8321,-41.5718 40.8873,-52.0234 10.3189,2.7278 17.7674,11.6051 23.5398,20.1156 23.6209,19.4014 9.3374,53.9545 -11.8417,68.4212 -8.0098,3.6065 -15.059,-2.5644 -20.2593,-7.9179 -6.4876,0.5619 -10.3699,8.3684 -11.647,14.008 -6.3547,66.7045 -12.0761,133.5 -21.4549,199.8776 1.8287,32.5196 10.472,64.4779 12.7708,97.0486 6.2934,30.1084 6.243,64.4971 -14.0575,89.5074 -20.7092,38.8029 -49.47,72.62 -79.037,104.925 -23.4574,26.1342 -55.4144,43.0839 -77.605,70.5156 -17.634,18.4819 -21.2813,45.1681 -28.198,68.7277 -0.6232,4.5158 -1.2978,9.0817 -3.0346,13.3216 -11.3303,21.9658 -28.9333,44.7285 -53.9232,51.1854 1.9514,6.5898 6.4362,12.0662 10.6557,17.338 21.0463,14.4361 45.0653,23.9484 69.8611,29.6187 23.0181,1.7164 47.8762,1.9309 68.1562,-10.421 24.4689,-23.4472 35.9208,-56.4581 54.9034,-83.992 8.8782,-17.8791 18.768,-35.84 31.927,-50.8789 17.7055,-29.1481 42.3071,-52.9006 67.5831,-75.4181 24.0602,-27.6973 47.5384,-56.9169 60.6055,-91.6433 7.8464,-21.69 12.1269,-44.3818 16.7857,-66.9095 2.2987,-15.1921 4.5572,-30.3939 6.2225,-45.678 1.2975,-12.638 1.0009,-25.5525 4.117,-37.9453 6.222,-4.2194 15.4163,-1.0322 17.429,6.3136 l 0.2554,0.7774 c 1.2465,4.2195 2.0848,8.5603 2.8,12.8922 l 0,14.5906 c -0.2452,0.4189 -0.7461,1.2557 -0.9913,1.6746 -0.6335,35.8502 -10.6247,71.3221 -25.398,103.8315 -14.7528,35.7379 -35.1453,69.3311 -62.577,96.7628 -26.7778,35.5744 -60.8915,64.9271 -86.7601,101.2677 -8.1324,13.0978 -14.4668,27.39 -23.5494,39.8338 -16.3057,38.9561 -38.7824,81.2531 -80.6604,97.0071 -10.0584,3.042 -20.2648,4.3944 -30.4569,4.3868 z m -615.8691,-20.8356 c -25.1943,-32.4072 -43.7066,-69.4933 -65.7234,-104.0869 -23.0181,-35.319 -52.504,-66.1636 -85.657,-92.0935 -2.7892,-1.6346 1.0934,-3.5238 2.7792,-3.7179 12.5767,6.9473 24.0401,15.8566 34.553,25.6134 49.1727,47.1499 87.9861,105.077 114.1918,167.8788 0.4802,1.839 3.1666,6.5594 -0.1436,6.4061 z m 623.9004,-36.0249 c -1.1934,-0.034 -1.7624,-1.5516 -0.8684,-5.4339 7.356,-43.6864 39.4979,-76.9624 59.8393,-114.907 29.4546,-43.6864 66.1633,-81.9877 97.0789,-124.632 31.9576,-51.829 45.1576,-112.7927 48.2736,-173.0301 0.1226,-7.5807 0.5205,-16.0909 9.1535,-19.0333 4.6691,3.0139 10.4418,6.651 8.2963,13.3327 -5.5988,90.5093 -38.936,182.7251 -104.8436,246.9061 -45.0452,48.243 -82.9691,104.1275 -108.9398,164.8042 0.2809,4.9519 -5.3644,12.0669 -7.9898,11.9933 z m 39.0356,-0.5379 c -3.3297,0.1354 -3.3332,-10.7515 0.043,-13.8563 17.7566,-37.4441 39.9775,-72.6711 62.1476,-107.6325 26.8085,-33.1223 52.8722,-66.8874 80.263,-99.55 18.533,-24.142 29.9137,-52.8204 41.387,-80.5791 l 0.082,-0.7774 c 12.9649,-40.7031 17.2665,-83.4793 23.468,-125.5004 15.5804,-7.3253 15.4581,14.1501 13.5578,23.6005 -9.4197,71.2611 -27.5437,146.2006 -77.166,200.9312 -49.9083,64.3137 -104.0375,126.7783 -140.2044,200.2463 -1.4526,2.179 -2.6451,3.0798 -3.5774,3.1177 z m -73.1943,-19.4276 c -0.6857,0 -1.4446,-0.1287 -2.294,-0.4262 3.0548,-18.9519 16.9696,-34.5419 25.1123,-51.757 31.9066,-63.1491 85.1461,-111.4023 125.7062,-168.5236 39.6509,-55.5275 48.3861,-125.2558 57.1111,-191.1328 0.5006,-4.7814 1.3483,-14.0181 8.7145,-12.1689 10.8501,9.7365 4.9653,26.4921 3.9845,39.1505 -6.5387,80.8239 -40.57,159.8506 -98.7743,216.9106 -44.2176,47.1294 -79.2505,101.6445 -110.9017,157.7339 -2.6998,3.4686 -3.8595,10.1837 -8.6586,10.2135 z m -726.3591,-163.3307 c -3.8721,-0.1532 -6.926,-3.0545 -9.8479,-5.2919 20.0553,-36.9638 63.1482,-57.1721 104.2498,-57.2436 38.3941,-1.4201 79.2508,8.4086 109.0834,32.8673 -26.4202,-9.0417 -53.3816,-17.1343 -81.3548,-19.7293 -11.0647,-0.5619 -22.0476,0.1947 -33.102,-0.1118 -22.9874,2.7381 -45.8111,9.8799 -63.3225,25.6646 -7.7033,8.0609 -16.419,20.3302 -25.706,23.8447 z m -26.3685,-12.6271 c -4.0867,-2.7483 -7.2839,-7.7947 -9.7155,-11.912 19.7693,-28.8212 48.3653,-52.3412 81.9679,-62.9154 43.2164,-14.3646 90.8366,-6.7117 131.3047,12.5058 7.7647,3.5452 15.6717,7.1619 22.4352,12.4132 -7.3356,-2.3498 -14.4866,-5.252 -21.7711,-7.755 -71.0159,-23.907 -159.6664,-5.9455 -204.2212,57.6634 z m -22.4559,-25.4602 c -7.2947,-7.4378 -21.2095,-21.4959 -8.3059,-30.8032 18.4309,-18.8702 41.949,-31.6203 64.5789,-44.7282 57.5197,-34.8592 135.8808,-28.832 187.2808,14.364 5.9358,2.9628 12.0671,9.237 15.5101,13.1602 -10.4006,-4.5259 -19.9844,-10.759 -30.2317,-15.6426 -32.9896,-13.7414 -69.3714,-21.3828 -105.099,-15.9476 -51.0832,4.8427 -95.6783,37.8317 -123.7332,79.5974 z m -3.1369,-64.4767 c 0.5824,-18.6352 -0.2659,-37.2914 0.4901,-55.9266 l 0.1533,-0.8684 c -3.5758,-30.3026 -0.6031,-61.8711 -1.1957,-92.6028 -1.4405,-2.5031 -0.7963,-5.5284 -1.0312,-8.3073 -3.8824,-23.2531 -14.2321,-48.344 -10.2374,-71.3315 -5.9155,-6.6919 -16.5705,-12.6178 -14.5987,-23.0593 0.1328,-57.6934 0.9805,-115.4082 -2.6771,-172.979 -2.5133,-24.5097 -6.8043,-51.6244 4.3421,-74.714 12.9036,-32.6116 26.3286,-65.0182 39.2527,-97.6297 1.6653,-5.3331 10.8395,-3.4223 9.2764,2.8303 0.9399,13.9559 -11.5659,29.106 -9.2875,41.8053 22.2109,-4.9755 3.8516,22.7119 7.7646,33.4803 5.2616,20.8011 -6.7216,38.5065 -15.7736,55.885 -5.2207,15.3148 -1.6662,31.4673 -1.3393,47.1499 4.148,23.6107 7.06,47.7331 11.1569,71.4255 3.9947,13.8844 6.4257,28.3908 9.3068,42.5205 12.1986,39.896 29.8942,79.0261 33.4291,121.1902 1.3384,31.2016 -0.6631,62.4655 1.2883,93.6467 3.1569,13.5269 5.342,27.707 8.1925,41.4381 -4.996,1.9412 -9.8687,4.3824 -15.1813,5.3223 -16.173,8.7046 -31.0893,19.9847 -45.1576,31.5806 -1.4712,3.8619 -4.3625,7.4581 -8.1734,9.1439 z m 354.4443,-171.354 c -0.7752,0 -1.5858,-0.094 -2.4296,-0.3065 -0.9195,-29.097 -15.3664,-55.2714 -32.3772,-78.0648 -38.9152,-52.2275 -89.0891,-94.504 -138.8953,-135.9325 -8.6126,-8.5616 -18.2355,-20.1779 -16.5191,-32.8465 58.9705,57.9079 125.6945,108.715 175.1533,175.6034 12.0863,16.4795 23.6618,34.6651 26.4101,55.3232 0.3703,6.6757 -3.8484,16.187 -11.3422,16.2237 z m 263.1426,-8.7863 c -24.2747,-17.307 -24.6633,-51.7876 -17.6955,-78.1159 22.446,-81.7638 78.9645,-147.8563 112.3831,-224.7774 28.2797,-57.4891 28.4946,-127.4215 6.2529,-186.7189 4.148,-7.6625 10.226,-19.6067 20.4222,-17.0219 9.3891,20.1473 9.5736,43.196 10.5646,65.029 1.0013,32.4277 1.0615,65.6318 -7.1629,97.2625 -26.9413,80.5583 -85.2881,145.5576 -117.726,223.5004 -11.2588,28.3103 -17.2971,60.2581 -8.756,90.1316 3.3,9.9306 11.8832,23.1605 1.7176,30.7106 z m -237.8499,-16.0849 c -0.3748,-0.015 -0.7586,-0.048 -1.1494,-0.099 -4.6281,-33.7251 -23.7636,-65.6513 -45.6477,-92.2452 -49.7857,-60.3906 -111.4732,-109.3178 -168.2267,-162.7305 -5.139,-6.508 -6.7337,-15.7553 -4.6086,-23.428 3.678,5.8644 6.6928,12.4337 12.7819,16.2445 71.3122,52.4012 134.318,115.7042 187.608,186.291 12.0046,16.0197 25.3986,31.8549 32.0292,50.9907 2.7416,9.0758 -1.1705,25.4395 -12.7867,24.9764 z m 31.5231,-41.0006 c -0.3185,0.013 -0.6411,0.011 -0.969,0 -6.3037,-35.176 -28.1475,-67.3377 -51.0736,-94.9941 -49.4793,-60.4315 -117.737,-100.3483 -177.1775,-149.7458 -6.8145,-6.8656 -16.2844,-12.9032 -19.1962,-22.5068 0.1942,-5.0062 7.1,-3.2196 9.5622,-0.5939 28.484,26.0831 57.9693,51.4721 91.388,71.0982 65.5295,44.3914 130.0576,98.2632 161.0958,173.1819 1.5637,8.9966 -3.7564,23.1624 -13.6297,23.5653 z m 170.2158,-2.7506 c -1.0153,-0.01 -1.9063,-0.8505 -1.8438,-2.8127 -17.5011,-24.7141 -6.0486,-61.1358 1.9204,-88.026 17.7259,-57.4585 50.3474,-109.4408 75.6336,-163.3643 15.4986,-41.3161 33.1836,-84.839 24.4688,-129.8536 -2.7176,-13.2203 -9.8996,-33.7249 4.9759,-42.2251 13.6494,9.8897 5.3841,31.5688 8.2754,46.1889 3.2489,4.6996 0.3171,12.7194 -0.031,18.1649 0.2452,31.6307 -4.291,64.0286 -17.6748,92.9826 -8.7455,15.4782 -17.1946,31.1397 -26.3079,46.3932 -22.0067,41.3059 -51.1653,80.0072 -61.1674,126.6258 -8.2857,30.18 -1.0424,61.9321 -5.4866,92.4799 0.052,2.1033 -1.4579,3.4602 -2.7633,3.4464 z m -19.244,-53.334 c -5.2309,-2.4009 -9.5526,-8.908 -12.1067,-14.2922 -13.7516,-14.5485 -21.138,-35.0846 -27.8707,-53.7811 -4.8325,-8.7965 -7.3656,-18.9206 -10.2263,-28.514 -17.7157,-47.3338 -23.1813,-98.3978 -34.7669,-147.2538 -10.7071,-30.5172 -22.0791,-61.0956 -31.5296,-92.001 -4.2909,-9.4606 -9.4912,-20.1676 -10.9828,-30.9053 -11.1158,-19.8305 -16.5297,-44.749 -21.6482,-67.2767 0.031,-0.3984 0.091,-1.1842 0.1214,-1.5724 -12.6585,-42.4808 -22.0364,-86.362 -33.806,-129.231 -4.5771,-12.7913 -9.8699,-25.6543 -13.3231,-38.844 -7.6727,-14.0173 -14.6715,-31.2518 -24.2853,-45.1465 -16.7145,-14.9367 -35.4103,-29.179 -54.3111,-40.683 -11.0544,-6.5284 -37.1375,-8.5405 -33.102,-25.1426 22.3132,-9.2971 47.405,4.9644 70.8318,-1.186 18.298,-2.3294 53.2194,-12.3724 55.9473,15.4271 4.0764,19.5649 2.5232,42.3378 10.298,62.1683 3.0446,5.752 4.8632,12.1684 6.0789,18.5129 10.043,25.3986 24.3151,51.3288 39.7013,74.7556 9.2359,9.8284 17.7572,20.5865 25.6853,31.4672 3.7393,1.9208 6.2928,5.5777 8.1318,9.2557 21.2507,19.3197 37.4744,45.9963 36.7082,75.6654 2.9219,12.3928 1.1554,26.7268 -2.6963,38.8744 -3.4532,20.6172 -30.5791,18.1231 -41.8276,6.7111 -6.365,-1.1647 -10.7987,-6.6808 -16.8367,-8.7241 1.9514,14.4566 9.1033,27.3599 16.6228,39.5688 3.3919,2.2987 6.3755,5.2207 9.0114,8.3266 11.9739,5.7315 25.6939,4.7817 37.0242,-2.1759 3.7291,-4.8835 9.6343,-7.5194 13.486,-12.3621 9.8182,28.1162 23.7134,54.8535 41.5721,78.74 10.656,12.5052 21.976,24.4169 34.8388,34.6744 6.2117,3.0854 12.8426,8.4597 14.1708,15.6011 21.1178,29.0664 -2.9025,66.3166 -18.6565,92.4304 -0.026,0.1966 -0.057,0.3905 -0.097,0.581 -0.151,0.7234 -0.4163,1.3958 -0.7392,2.0401 -7e-4,0 -8e-4,0 0,0.01 -9.4292,29.4677 -17.2632,62.1436 -24.4369,90.5802 -0.4188,7.6217 -1.8083,15.3052 -4.1377,22.5182 -0.092,7.1516 -2.2796,14.0878 -2.8416,21.1884 z m -112.4949,-3.6669 c -2.4009,-6.8145 -4.883,-13.6296 -7.2124,-20.4748 -0.8684,-1.2668 -1.5439,-2.6773 -1.9219,-4.1792 -10.5538,-17.3172 -22.9562,-33.3874 -35.819,-48.9984 -5.6804,-5.1492 -11.6674,-10.2672 -16.4999,-16.203 -6.4875,-4.1173 -12.3414,-9.604 -16.9389,-15.7544 -10.0327,-6.1811 -20.893,-14.7538 -28.4023,-22.3856 -39.9675,-28.0141 -84.1852,-49.652 -126.1245,-74.4172 -11.5448,-5.5067 -24.0701,-11.7906 -33.541,-19.5552 -16.602,-4.9347 -24.6016,-23.0792 -32.7954,-36.6571 -7.7851,-10.8603 -13.9764,-23.223 -18.2367,-35.953 -7.6829,-13.251 -12.6086,-29.1979 -18.6262,-43.6443 -19.6977,-46.8535 -40.7849,-93.9124 -48.5802,-144.5767 -6.8451,-46.2201 -15.8869,-92.3681 -19.5649,-138.905 -2.973,-9.7467 -8.2959,-18.4104 -12.6175,-27.4828 -11.8513,-14.0683 -25.2862,-29.2298 -39.4874,-41.9393 -8.5411,-2.7892 -15.1507,-9.9201 -23.7122,-13.0566 -6.9984,-4.8018 -0.6025,-15.3773 7.2235,-13.1603 21.1587,0.235 42.3681,-0.3873 63.5268,0.3688 9.2665,3.6882 16.1723,12.8219 19.0126,22.119 7.7851,29.5874 17.9608,59.7572 28.4533,89.0892 8.0405,18.39 9.9418,39.3744 21.3129,56.3544 13.3123,22.2621 36.6778,36.1475 49.3975,58.7058 12.168,18.7271 20.4528,40.2332 26.3478,61.7086 5.7111,12.3621 6.6523,27.788 11.5767,39.5576 8.3368,-3.6575 7.4879,-18.0107 11.125,-26.4803 10.6049,-40.3251 13.6606,-82.1428 17.1751,-123.4794 6.1198,-10.7581 12.7606,4.8629 14.3033,11.3709 -2.9832,40.3353 -14.6618,79.4242 -24.5311,118.462 -6.0584,20.1166 -9.4299,41.3784 -19.0029,60.2383 -4.1582,14.5383 -25.5825,11.5848 -31.9271,26.45 -3.5247,6.3854 -4.9241,18.1856 4.7204,19.5138 8.4288,-5.9461 17.2148,-12.6776 28.1262,-12.2792 4.5157,-2.9015 9.5631,0.8777 14.2219,1.317 17.0107,-1.6959 14.8033,-25.7456 21.5156,-36.1462 14.1092,-47.2315 16.2968,-96.4554 17.7067,-145.434 4.2399,-19.3401 27.5128,-1.021 23.7633,12.1993 -3.1569,35.0533 -12.5556,71.2095 -24.4785,103.2489 l -0.174,0.8077 c -5.4557,32.5502 -28.5967,62.9856 -20.3008,96.8538 2.2171,2.3601 3.6065,5.2923 5.1595,8.0712 16.4998,10.0327 16.9392,-15.8776 24.8775,-24.6844 0.9706,-5.7213 3.1059,-11.3807 6.0789,-16.3562 4.4136,-15.0696 8.7863,-31.6719 13.3327,-45.8935 0.6437,-7.5195 2.3703,-15.0293 4.2399,-22.3138 5.8644,-26.2261 5.3025,-54.138 11.3916,-79.8431 14.7835,4.3829 17.9194,25.6237 10.5328,37.9756 0.041,0.3882 0.113,1.1851 0.1436,1.5836 -4.6281,16.5918 -8.317,34.7369 -14.1915,50.0823 l -0.2347,0.8173 c -10.7684,41.4592 -22.2717,83.4605 -36.3298,123.7652 1.9207,6.4773 6.9681,11.8807 8.6027,18.2559 1.1341,0.1532 2.4102,1.0123 3.5136,0.2665 35.6357,-58.1531 47.304,-126.666 59.8296,-192.5327 10.2269,-6.8861 11.5244,11.6361 10.0124,18.2463 -12.0352,66.0608 -29.9249,132.152 -60.8609,192.0012 -6.4978,9.0519 -3.7291,23.0698 2.1966,32.4793 19.5648,16.0606 41.8059,28.7392 63.3017,41.9186 6.1402,0.5619 13.7111,10.6975 17.8488,2.3913 6.7634,-8.1835 12.1888,-17.7971 20.1475,-24.8057 9.8352,-15.5166 21.8665,-30.0668 33.7374,-44.1566 0.2383,-0.3586 0.5018,-0.6966 0.8253,-0.9818 10.9829,-16.8064 24.5193,-31.8549 36.1765,-48.2322 0.8684,2.6462 1.9117,5.4152 1.5133,8.2452 14.2011,46.6186 16.4584,96.1994 24.6317,144.1665 1.1749,6.7226 3.8418,13.3024 4.0053,20.1476 8.1631,19.5546 -4.1477,40.9378 -14.0783,57.6522 -0.3473,1.5019 -0.9399,2.9935 -2.1455,3.9845 -3.5452,7.2743 -7.6018,14.8866 -13.272,20.5466 z m 220.7307,-26.6558 c 21.5776,-36.2691 46.0161,-71.1386 69.2896,-106.3554 36.31,-54.3628 58.0606,-122.9066 41.1317,-187.956 -9.5117,-26.737 -17.8476,-53.9033 -27.9825,-80.4258 -2.3396,-4.9653 1.572,-10.0213 6.4045,-10.8488 7.0188,-2.6053 10.5133,4.8925 13.3536,9.5718 13.6698,20.4639 19.3294,45.6281 24.3458,69.3103 9.2563,32.7035 9.461,68.39 1.2979,101.5328 -9.9408,39.6406 -33.5,74.0094 -57.7033,106.2021 -21.455,33.7047 -45.8114,66.9091 -70.1373,98.969 z m -33.4899,-199.1322 c -3.1876,-3.5349 -8.2962,-7.2442 -5.8953,-12.8122 4.2093,-23.2838 8.817,-46.9353 4.8018,-70.5971 -2.881,-11.5755 -4.9553,-23.6413 -4.8736,-35.605 0.082,-8.6127 14.672,-11.1359 17.0729,-2.6867 7.7545,23.2429 3.1254,48.3455 -0.2154,72.0481 -0.5824,17.1027 -4.9749,33.6945 -10.8904,49.6529 z m -74.7858,-99.0104 c -2.452,-4.3523 -4.6183,-8.9086 -5.8954,-13.7718 -13.5472,-26.8595 -23.7329,-55.9355 -28.7391,-85.7273 -6.7634,-38.1489 19.2578,-71.6499 40.8762,-99.7559 6.1504,-11.974 14.5077,-22.9265 22.4766,-33.6846 2.1149,-4.9551 5.3034,-9.6337 9.1551,-13.3424 3.2591,-7.7851 7.0281,-15.8977 12.2488,-22.5181 9.5219,-21.4039 21.0881,-42.1019 28.5156,-64.4048 2.0127,-7.8771 1.9099,-16.03 3.2789,-24.0092 -0.6742,-7.5705 -0.582,-15.846 1.6044,-23.0896 3.1263,-15.468 23.8558,-12.2906 35.5028,-11.9535 35.3394,3.8517 70.5858,0.244 105.8844,-1.5643 0.4086,0.051 1.226,0.1637 1.6346,0.225 4.6997,-3.2591 19.2594,5.9152 11.5561,9.3275 -2.1149,1.4201 -4.5056,2.9734 -7.1517,2.7282 -41.7861,15.1819 -83.9703,38.7725 -110.4723,75.8793 -10.0225,12.8322 -12.4343,30.3125 -22.7224,42.6849 -6.835,15.7132 -14.2832,31.5896 -21.3225,47.2313 -6.0789,18.3286 -12.3826,37.0455 -18.1346,55.221 -7.8974,28.8109 -13.4853,59.2058 -24.8871,86.5557 -7.1517,25.9912 -18.5943,51.3183 -33.4084,73.9686 z" inkscape:connector-curvature="0"/>
    </g>
  </g>
</svg>
